<?xml version="1.0" encoding="UTF-8" standalone="no"?>
<svg
   xmlns:dc="http://purl.org/dc/elements/1.1/"
   xmlns:cc="http://creativecommons.org/ns#"
   xmlns:rdf="http://www.w3.org/1999/02/22-rdf-syntax-ns#"
   xmlns:svg="http://www.w3.org/2000/svg"
   xmlns="http://www.w3.org/2000/svg"
   xmlns:sodipodi="http://sodipodi.sourceforge.net/DTD/sodipodi-0.dtd"
   xmlns:inkscape="http://www.inkscape.org/namespaces/inkscape"
   width="1656.3925mm"
   height="93.305222mm"
   viewBox="0 0 1656.3924 93.305222"
   version="1.1"
   id="svg8"
   sodipodi:docname="Banner.svg"
   inkscape:version="1.0.1 (3bc2e813f5, 2020-09-07)">
  <defs
     id="defs2" />
  <sodipodi:namedview
     id="base"
     pagecolor="#ffffff"
     bordercolor="#666666"
     borderopacity="1.0"
     inkscape:pageopacity="0.0"
     inkscape:pageshadow="2"
     inkscape:zoom="0.5"
     inkscape:cx="3083.3758"
     inkscape:cy="346.33634"
     inkscape:document-units="mm"
     inkscape:current-layer="g26"
     inkscape:document-rotation="0"
     showgrid="false"
     fit-margin-top="0"
     fit-margin-left="0"
     fit-margin-right="0"
     fit-margin-bottom="0"
     inkscape:window-width="1920"
     inkscape:window-height="1001"
     inkscape:window-x="-9"
     inkscape:window-y="-9"
     inkscape:window-maximized="1" />
  <metadata
     id="metadata5">
    <rdf:RDF>
      <cc:Work
         rdf:about="">
        <dc:format>image/svg+xml</dc:format>
        <dc:type
           rdf:resource="http://purl.org/dc/dcmitype/StillImage" />
        <dc:title />
      </cc:Work>
    </rdf:RDF>
  </metadata>
  <g
     inkscape:label="Ebene 1"
     inkscape:groupmode="layer"
     id="layer1"
     transform="translate(783.10423,51.506208)">
    <g
       id="g26"
       transform="translate(35.279583,2.1381603)">
      <path
         style="fill:#6d9924;stroke:none;stroke-width:0.215072"
         d="M 18.14888,5.6579392 C -10.043718,6.742241 -27.176523,5.3040594 -43.531886,4.8334454 -112.05941,2.8616095 -166.56129,-0.90052962 -223.06164,-6.0612658 c -18.02195,-1.6461222 -38.38987,-3.7778404 -36.64469,-3.8352561 0.4278,-0.014066 6.91222,0.4562129 14.40982,1.0450864 58.26018,4.5758393 112.37254,7.29028 171.602351,8.60809274 40.814164,0.90808123 97.608648,0.90660368 138.613881,-0.003613 C 238.04227,-4.0898127 404.40579,-22.240989 543.75173,-52.49015 l 5.01627,-1.152472 158.89671,-0.001 c -2.56962,0.629436 -33.01377,6.334987 -46.24939,8.753766 C 489.74759,-13.518005 292.08755,4.2804518 76.963752,6.0138804 42.840631,5.7493095 45.930183,7.3752275 18.14888,5.6579392 Z M -261.71831,-10.074225 c 0.26753,-0.05144 0.65466,-0.04949 0.86029,0.0043 0.20561,0.05383 -0.0133,0.095923 -0.48643,0.093535 -0.47316,-0.00239 -0.64141,-0.046432 -0.37386,-0.097875 z"
         id="path36"
         sodipodi:nodetypes="csssssssccsccsssss"
         inkscape:label="path36" />
      <path
         style="fill:#df001f;stroke:none;stroke-width:0.215072"
         d="M -94.878748,39.536195 C -99.137173,39.441159 -109.29932,39.255711 -117.4613,39.124087 -291.91992,36.3107 -465.2462,20.104153 -619.2242,-7.7923092 -687.413,-20.146192 -746.29918,-33.498142 -809.8855,-51.023165 c -4.31757,-1.189965 -8.49534,-2.636767 -8.49534,-2.636767 l 141.10871,0.02501 c 3.15359,1.062903 39.34661,8.239039 63.25872,13.020956 C -432.9069,-4.3964718 -241.4271,11.55024 -49.928707,6.7406984 -38.605869,6.4563218 -26.217045,5.9979709 -12.506185,5.4734878 -6.5862218,5.2470299 -1.4879839,5.2301618 11.366803,5.394494 29.720163,5.6291225 88.941687,5.0740632 108.00722,4.7436567 139.78021,4.1930273 165.88893,3.4909523 191.30058,2.5195234 365.96597,-4.1575315 529.78654,-20.425227 671.12614,-46.964034 c 16.63949,-3.124336 35.90091,-6.67824 36.46389,-6.677214 l 130.44032,-0.0037 -10.89558,2.893131 c -23.77185,6.312202 -42.90793,9.982568 -65.27434,14.674138 C 574.02199,3.3232282 341.51902,28.387167 82.340552,37.174918 51.153009,38.232368 31.39781,38.736355 -3.3656267,39.361423 -19.358012,39.648977 -84.270388,39.772946 -94.878748,39.536195 Z"
         id="path34"
         sodipodi:nodetypes="ssssccsssssssccsssss"
         inkscape:label="Red" />
      <path
         style="fill:#127a2e;stroke:none;stroke-width:0.216942"
         d="m -26.718426,1.1249411 c -72.26903,-0.44591701 -143.525814,-3.4919514 -216.131854,-9.2390492 -6.76559,-0.535527 -14.29189,-1.1228812 -16.72513,-1.3052328 -2.43323,-0.182352 -5.83222,-0.477212 -7.55329,-0.6552451 -1.72106,-0.178034 -8.3248,-0.816563 -14.67495,-1.418954 -77.64324,-7.365418 -148.22626,-17.144834 -217.31879,-30.109938 -12.65937,-2.375512 -39.67631,-7.83973 -50.49911,-10.213529 l -7.88106,-1.829173 1106.27061,0.0036 c 0,0 -18.49679,4.85619 -28.13278,6.810052 C 368.9224,-16.070195 192.42531,0.54945274 10.400574,1.2130986 c -7.8931824,0.028778 -24.596733,-0.010904 -37.119,-0.088157 z"
         id="path30"
         sodipodi:nodetypes="sssssssccsss"
         inkscape:label="Dark green" />
      <path
         style="fill:#652622;stroke:none;stroke-width:0.217405"
         d="m -147.35631,7.7036789 c -106.8477,-1.3900198 -210.11812,-8.7915814 -312.76711,-22.4165379 -70.44882,-9.350916 -142.63338,-21.68857 -207.47457,-36.232725 -3.52722,-0.755795 -6.99327,-1.462888 -11.02361,-2.698942 l 122.91875,0.0058 9.40689,2.129703 c 82.34921,18.643706 172.01131,30.647654 271.69386,39.94115 12.83506,1.196626 12.88379,1.4936 23.35386,2.3680506 33.77971,2.8212506 87.43733,8.0458191 134.01186,10.5064497 26.954963,1.4240879 48.922673,2.287696 82.829815,3.2562565 8.295684,0.2369671 22.655317,0.5364769 27.3194976,0.5698239 2.6012488,0.018602 5.1057867,0.09576 5.5656394,0.1714686 1.78358043,0.2936478 -41.968785,1.6685522 -69.55288,2.185678 -16.04576,0.3008112 -60.101312,0.4242767 -76.282002,0.2137766 z"
         id="path28"
         sodipodi:nodetypes="sscccssssssssss"
         inkscape:label="Dark red" />
    </g>
  </g>
</svg>
